<svg id="visual" viewBox="0 0 900 600" width="900" height="600" xmlns="http://www.w3.org/2000/svg" xmlns:xlink="http://www.w3.org/1999/xlink" version="1.1"><rect x="0" y="0" width="900" height="600" fill="#E0ECFE"></rect><defs><linearGradient id="grad1_0" x1="33.3%" y1="100%" x2="100%" y2="0%"><stop offset="20%" stop-color="#e0ecfe" stop-opacity="1"></stop><stop offset="80%" stop-color="#e0ecfe" stop-opacity="1"></stop></linearGradient></defs><defs><linearGradient id="grad2_0" x1="0%" y1="100%" x2="66.7%" y2="0%"><stop offset="20%" stop-color="#e0ecfe" stop-opacity="1"></stop><stop offset="80%" stop-color="#e0ecfe" stop-opacity="1"></stop></linearGradient></defs><g transform="translate(900, 600)"><path d="M-486.7 0C-459.9 -76.5 -433 -153 -395.8 -228.5C-358.6 -304 -311.1 -378.7 -243.4 -421.5C-175.7 -464.4 -87.8 -475.6 0 -486.7L0 0Z" fill="#DAE0F2"></path></g><g transform="translate(0, 0)"><path d="M486.7 0C444.6 67.7 402.5 135.4 367.2 212C331.9 288.6 303.4 374.3 243.4 421.5C183.3 468.8 91.7 477.8 0 486.7L0 0Z" fill="#DAE0F2"></path></g></svg>