<svg xmlns="http://www.w3.org/2000/svg" version="1.1" xmlns:xlink="http://www.w3.org/1999/xlink" xmlns:svgjs="http://svgjs.com/svgjs" width="4327" height="3661"><svg width="4327" height="3661" viewBox="0 0 4327 3661" fill="none" xmlns="http://www.w3.org/2000/svg">
<path d="M1052.14 2843.69C1029.73 2777.85 1011.14 2710.74 996.47 2642.7C922.132 2196.24 841.225 1750.48 782.101 1301.93C749.159 1056.44 803.183 807.07 934.579 598.098C947.428 578.161 961.397 558.987 976.416 540.671C980.911 535.419 990.938 534.369 1008.92 527.015C1008.92 552.927 1008.92 571.836 1008.92 590.745C1000.96 855.118 1129.93 1020.04 1385.44 1072.22C1673.65 1130.8 1972.79 1094.87 2239.46 969.621C2402.66 895.386 2554.1 794.539 2716.6 719.605C2853.26 651.722 2996.63 598.67 3144.3 561.331C3379.07 508.807 3572 631.364 3660.17 863.171C3751.1 1101.63 3751.45 1350.6 3727.59 1596.76C3678.5 2110.45 3609.34 2622.39 3460.67 3117.87C3415.26 3259.05 3350.05 3392.9 3267.05 3515.3C3178.53 3650.47 3032.28 3679.88 2880.84 3650.12C2762.59 3626.65 2722.14 3520.21 2671.66 3424.61C2590.06 3270.19 2515.37 3109.46 2416.14 2967.3C2243.26 2716.23 2016.45 2520.84 1722.21 2424.55C1384.75 2313.89 1162.43 2449.76 1093.97 2801.67C1090.08 2814.95 1084.98 2827.85 1078.76 2840.19L1052.14 2843.69Z" fill="#0144E8"></path>
<path d="M2210.42 3002.66C2095.63 3027.88 2063.12 3103.86 2030.28 3183C1993.67 3286.55 1948.32 3386.71 1894.74 3482.39C1750.91 3709.64 1529.28 3712.44 1382.33 3489.39C1268.58 3316.41 1177.64 3132.92 1217.75 2912.32C1267.89 2638.14 1510.26 2513.84 1757.82 2639.19C1807.73 2664.95 1854.69 2696.19 1897.85 2732.34C1997.78 2815.33 2095.63 2901.82 2210.42 3002.66Z" fill="#4398F6"></path>
<path d="M2441.38 641.167C2130.2 819.049 1804.15 938.455 1438.69 832.706C1400.45 823.177 1364.66 805.488 1333.71 780.822C1302.76 756.156 1277.37 725.082 1259.24 689.677C1241.11 654.273 1230.65 615.356 1228.56 575.528C1226.47 535.7 1232.81 495.88 1247.14 458.732C1260.78 432.159 1279.61 408.676 1302.5 389.712C1325.38 370.749 1351.84 356.703 1380.26 348.431C1451.18 328.305 1526.1 327.581 1597.39 346.33C1880.57 429.319 2160.97 523.862 2442.07 613.854L2441.38 641.167Z" fill="#4398F6"></path>
<path d="M414.907 279.099C484.117 276.041 553.456 278.148 622.36 285.402C650.367 290.305 672.149 332.324 696.352 357.536C671.803 376.445 648.983 408.66 622.706 412.161C553.755 418.729 484.497 421.418 415.252 420.215L401.768 407.959V291.005L414.907 279.099Z" fill="#0144E8"></path>
<path d="M253.784 314.466C250.868 240.018 253.527 165.453 261.737 91.4121C267.615 56.3959 310.143 30.4836 335.729 0.369629C360.277 31.8843 400.039 60.5973 404.88 95.2634C413.078 169.189 416.082 243.61 413.869 317.967L398.656 331.623L268.998 334.075C263.12 327.772 258.971 321.119 253.784 314.466Z" fill="#0144E8"></path>
<path d="M0.000488281 348.081C22.4746 369.791 42.5284 289.254 69.1516 285.402C138.033 277.779 207.326 274.621 276.605 275.948C281.1 281.9 285.941 287.503 290.781 293.106C290.781 331.974 288.706 370.492 287.323 409.36C283.866 412.861 280.408 416.363 276.605 419.515C207.335 420.771 138.054 417.73 69.1516 410.41C42.5284 406.558 21.0916 369.091 0.000488281 348.081Z" fill="#0144E8"></path>
<path d="M414.908 420.215C416.787 484.433 413.782 548.703 405.919 612.454C400.041 642.218 363.391 665.678 340.571 692.291C319.48 665.678 284.558 641.167 279.718 611.753C273.306 547.893 271.227 483.663 273.494 419.514C277.298 416.363 280.755 412.861 284.213 409.359H401.424L414.908 420.215Z" fill="#0144E8"></path>
<path d="M401.421 407.958H284.209C284.209 369.09 286.63 330.572 287.667 291.704L401.421 289.603V407.958Z" fill="white"></path>
<path d="M4045.34 3220.46C4114.55 3217.41 4183.89 3219.51 4252.79 3226.77C4280.8 3231.67 4302.58 3273.69 4326.79 3298.9C4302.24 3317.81 4279.42 3350.02 4253.14 3353.53C4184.19 3360.09 4114.93 3362.78 4045.69 3361.58L4032.2 3349.32V3232.37L4045.34 3220.46Z" fill="#4398F6"></path>
<path d="M3884.22 3255.83C3881.3 3181.38 3883.96 3106.82 3892.17 3032.78C3898.05 2997.76 3940.58 2971.85 3966.16 2941.73C3990.71 2973.25 4030.48 3001.96 4035.32 3036.63C4043.51 3110.55 4046.52 3184.98 4044.3 3259.33L4029.09 3272.99L3899.43 3275.44C3893.56 3269.14 3889.41 3262.48 3884.22 3255.83Z" fill="#4398F6"></path>
<path d="M3630.43 3289.45C3652.91 3311.16 3672.96 3230.62 3699.58 3226.77C3768.47 3219.14 3837.76 3215.99 3907.04 3217.31C3911.53 3223.27 3916.37 3228.87 3921.21 3234.47C3921.21 3273.34 3919.14 3311.86 3917.76 3350.72C3914.3 3354.23 3910.84 3357.73 3907.04 3360.88C3837.77 3362.14 3768.49 3359.1 3699.58 3351.78C3672.96 3347.92 3651.52 3310.46 3630.43 3289.45Z" fill="#4398F6"></path>
<path d="M4045.34 3361.58C4047.22 3425.8 4044.21 3490.07 4036.35 3553.82C4030.47 3583.58 3993.82 3607.04 3971 3633.66C3949.91 3607.04 3914.99 3582.53 3910.15 3553.12C3903.74 3489.26 3901.66 3425.03 3903.93 3360.88C3907.73 3357.73 3911.19 3354.23 3914.65 3350.72H4031.86L4045.34 3361.58Z" fill="#4398F6"></path>
<path d="M4031.86 3349.32H3914.64C3914.64 3310.45 3917.06 3271.94 3918.1 3233.07L4031.86 3230.97V3349.32Z" fill="white"></path>
</svg><style>@media (prefers-color-scheme: light) { :root { filter: none; } }
</style></svg>